<svg width="29" height="28" viewBox="0 0 29 28" fill="none" xmlns="http://www.w3.org/2000/svg">
<path d="M14.7466 0.339172C12.9081 0.339172 11.0876 0.701293 9.38901 1.40486C7.69046 2.10842 6.14711 3.13966 4.84709 4.43968C2.22158 7.06519 0.746582 10.6261 0.746582 14.3392C0.746582 20.5272 4.76458 25.7772 10.3226 27.6392C11.0226 27.7512 11.2466 27.3172 11.2466 26.9392V24.5732C7.36858 25.4132 6.54258 22.6972 6.54258 22.6972C5.89858 21.0732 4.98858 20.6392 4.98858 20.6392C3.71458 19.7712 5.08658 19.7992 5.08658 19.7992C6.48658 19.8972 7.22858 21.2412 7.22858 21.2412C8.44658 23.3692 10.5046 22.7392 11.3026 22.4032C11.4286 21.4932 11.7926 20.8772 12.1846 20.5272C9.07658 20.1772 5.81458 18.9732 5.81458 13.6392C5.81458 12.0852 6.34658 10.8392 7.25658 9.84517C7.11658 9.49517 6.62658 8.03917 7.39658 6.14917C7.39658 6.14917 8.57258 5.77117 11.2466 7.57717C12.3526 7.26917 13.5566 7.11517 14.7466 7.11517C15.9366 7.11517 17.1406 7.26917 18.2466 7.57717C20.9206 5.77117 22.0966 6.14917 22.0966 6.14917C22.8666 8.03917 22.3766 9.49517 22.2366 9.84517C23.1466 10.8392 23.6786 12.0852 23.6786 13.6392C23.6786 18.9872 20.4026 20.1632 17.2806 20.5132C17.7846 20.9472 18.2466 21.8012 18.2466 23.1032V26.9392C18.2466 27.3172 18.4706 27.7652 19.1846 27.6392C24.7426 25.7632 28.7466 20.5272 28.7466 14.3392C28.7466 12.5007 28.3845 10.6802 27.6809 8.9816C26.9773 7.28305 25.9461 5.7397 24.6461 4.43968C23.3461 3.13966 21.8027 2.10842 20.1042 1.40486C18.4056 0.701293 16.5851 0.339172 14.7466 0.339172Z" fill="#444855"/>
</svg>
