<svg width="43" height="43" viewBox="0 0 43 43" fill="none" xmlns="http://www.w3.org/2000/svg">
<path d="M38.1207 0.302734C39.3739 0.302734 40.5758 0.800569 41.4619 1.68672C42.3481 2.57287 42.8459 3.77475 42.8459 5.02796V38.1046C42.8459 39.3578 42.3481 40.5597 41.4619 41.4458C40.5758 42.332 39.3739 42.8298 38.1207 42.8298H5.04408C3.79087 42.8298 2.58899 42.332 1.70283 41.4458C0.816683 40.5597 0.318848 39.3578 0.318848 38.1046V5.02796C0.318848 3.77475 0.816683 2.57287 1.70283 1.68672C2.58899 0.800569 3.79087 0.302734 5.04408 0.302734H38.1207ZM36.9394 36.9233V24.4014C36.9394 22.3587 36.1279 20.3996 34.6835 18.9552C33.239 17.5107 31.28 16.6993 29.2372 16.6993C27.229 16.6993 24.89 17.9278 23.756 19.7707V17.1482H17.1643V36.9233H23.756V25.2756C23.756 23.4564 25.2208 21.9679 27.04 21.9679C27.9173 21.9679 28.7586 22.3164 29.3789 22.9367C29.9992 23.557 30.3477 24.3983 30.3477 25.2756V36.9233H36.9394ZM9.48579 13.4389C10.5385 13.4389 11.5481 13.0207 12.2924 12.2763C13.0368 11.532 13.455 10.5224 13.455 9.46968C13.455 7.27245 11.683 5.47686 9.48579 5.47686C8.42683 5.47686 7.41124 5.89753 6.66244 6.64633C5.91364 7.39513 5.49297 8.41072 5.49297 9.46968C5.49297 11.6669 7.28856 13.4389 9.48579 13.4389ZM12.7698 36.9233V17.1482H6.22538V36.9233H12.7698Z" fill="#D2D2D2"/>
</svg>
