<svg width="31" height="24" viewBox="0 0 31 24" fill="none" xmlns="http://www.w3.org/2000/svg">
<path d="M1.74658 4.2222C1.74658 3.39708 2.07436 2.60575 2.65781 2.02231C3.24125 1.43886 4.03258 1.11108 4.85769 1.11108H26.6355C27.4606 1.11108 28.2519 1.43886 28.8354 2.02231C29.4188 2.60575 29.7466 3.39708 29.7466 4.2222V19.7778C29.7466 20.6029 29.4188 21.3942 28.8354 21.9776C28.2519 22.5611 27.4606 22.8889 26.6355 22.8889H4.85769C4.03258 22.8889 3.24125 22.5611 2.65781 21.9776C2.07436 21.3942 1.74658 20.6029 1.74658 19.7778V4.2222Z" stroke="#444855" stroke-width="2" stroke-linecap="round" stroke-linejoin="round"/>
<path d="M1.74658 4.22223L15.7466 13.5556L29.7466 4.22223" stroke="#444855" stroke-width="2" stroke-linecap="round" stroke-linejoin="round"/>
</svg>
