<svg width="64" height="64" viewBox="0 0 64 64" fill="none" xmlns="http://www.w3.org/2000/svg">
<path fill-rule="evenodd" clip-rule="evenodd" d="M32 0C14.3273 0 0 14.3273 0 32C0 49.6727 14.3273 64 32 64C49.6727 64 64 49.6727 64 32C64 14.3273 49.6727 0 32 0ZM39.2296 15.302C39.9934 15.4111 40.6825 15.8191 41.1455 16.4364L43.1818 19.1505L45.2182 16.4364C45.6811 15.8191 46.3703 15.4111 47.134 15.302C47.5122 15.2479 47.8974 15.2689 48.2674 15.3637C48.6375 15.4586 48.9853 15.6253 49.2909 15.8545C49.9081 16.3175 50.3162 17.0066 50.4253 17.7704C50.5344 18.5342 50.3356 19.31 49.8727 19.9273L46.8182 24L49.8727 28.0727C50.1019 28.3783 50.2687 28.7261 50.3635 29.0962C50.4583 29.4663 50.4793 29.8514 50.4253 30.2296C50.3713 30.6078 50.2433 30.9716 50.0487 31.3003C49.854 31.6291 49.5965 31.9162 49.2909 32.1455C49.2909 32.1455 48.6375 32.5414 48.2674 32.6363C47.8974 32.7311 47.5122 32.7521 47.134 32.698C46.3703 32.5889 45.6811 32.1809 45.2182 31.5636L43.1818 28.8495L41.1455 31.5636C40.6825 32.1809 39.9934 32.5889 39.2296 32.698C38.4658 32.8071 37.69 32.6084 37.0727 32.1455C36.4555 31.6825 36.0474 30.9934 35.9383 30.2296C35.8292 29.4658 36.028 28.69 36.4909 28.0727L39.5455 24L36.4909 19.9273C36.028 19.31 35.8292 18.5342 35.9383 17.7704C36.0474 17.0066 36.4555 16.3175 37.0727 15.8545C37.69 15.3916 38.4658 15.1929 39.2296 15.302ZM18.5116 16.1248C19.0571 16.6703 19.3636 17.4103 19.3636 18.1818V24C19.379 24.6916 19.5931 25.3642 19.9804 25.9375C20.312 26.4 20.8938 26.9091 22.2727 26.9091C23.6516 26.9091 24.2335 26.4 24.5651 25.9375C25.0073 25.3265 25.1818 24.5033 25.1818 24V18.1818C25.1818 17.4103 25.4883 16.6703 26.0339 16.1248C26.5794 15.5792 27.3194 15.2727 28.0909 15.2727C28.8625 15.2727 29.6024 15.5792 30.1479 16.1248C30.6935 16.6703 31 17.4103 31 18.1818V24C31 25.4371 30.5927 27.5229 29.2895 29.3353C27.8756 31.296 25.5484 32.7273 22.2727 32.7273C18.9971 32.7273 16.6698 31.3018 15.256 29.3353C13.9527 27.5229 13.5455 25.4342 13.5455 24V18.1818C13.5455 17.4103 13.8519 16.6703 14.3975 16.1248C14.9431 15.5792 15.683 15.2727 16.4545 15.2727C17.2261 15.2727 17.966 15.5792 18.5116 16.1248ZM32 54.5C19.3396 54.5 15.0743 44.8258 14.5927 39.4985C14.543 38.9484 14.9932 38.5 15.5455 38.5H48.4253C48.9776 38.5 49.4278 38.9484 49.3784 39.4985C48.9 44.8258 44.6603 54.5 32 54.5Z" fill="black"/>
</svg>
