<svg width="49" height="51" viewBox="0 0 49 51" fill="none" xmlns="http://www.w3.org/2000/svg">
<path d="M43.7524 48.6867C6.64006 48.2017 1.95023 20.3486 2.19736 4.63739C2.20478 4.16572 2.49818 3.7527 2.9414 3.59118C8.23249 1.66294 11.7131 2.5078 15.9292 3.57953C16.5615 3.74026 16.942 4.38317 16.826 5.02517C16.0954 9.06721 17.0055 12.2888 18.045 15.4458C18.204 15.9288 18.0389 16.4596 17.6321 16.7647L14.1485 19.3776C13.6917 19.7202 13.5455 20.341 13.8011 20.8514C18.2846 29.8043 19.815 32.4138 29.9154 38.1081C30.3748 38.3671 30.9548 38.2886 31.3277 37.9157L34.9666 34.2768C35.3648 33.8786 35.9863 33.8206 36.4778 34.0953C39.1397 35.5828 42.9852 36.6028 45.924 36.8314C46.5745 36.882 47.1055 37.4097 47.0823 38.0617C46.9036 43.0813 45.6146 45.8516 44.995 47.7606C44.8212 48.2962 44.3154 48.6941 43.7524 48.6867Z" stroke="#D2D2D2" stroke-width="3.54392" stroke-linejoin="round"/>
</svg>
