<svg width="48" height="49" viewBox="0 0 48 49" fill="none" xmlns="http://www.w3.org/2000/svg">
<path d="M23.8791 33.3083L23.8827 33.3082C26.198 33.301 28.4164 32.3781 30.0535 30.741C31.6906 29.1039 32.6135 26.8855 32.6207 24.5702V24.5666C32.6207 22.8376 32.1081 21.1475 31.1475 19.71C30.187 18.2724 28.8217 17.152 27.2244 16.4903C25.627 15.8287 23.8694 15.6556 22.1737 15.9929C20.4779 16.3302 18.9203 17.1627 17.6978 18.3853C16.4752 19.6078 15.6427 21.1654 15.3054 22.8612C14.9681 24.5569 15.1412 26.3145 15.8028 27.9119C16.4645 29.5092 17.5849 30.8745 19.0225 31.835C20.46 32.7956 22.1501 33.3082 23.8791 33.3083ZM18.2349 16.1195C19.9056 15.0032 21.8698 14.4073 23.8791 14.4073C26.5735 14.4073 29.1575 15.4777 31.0627 17.3829C32.968 19.2881 34.0383 21.8722 34.0383 24.5666C34.0383 26.5759 33.4425 28.5401 32.3262 30.2107C31.2099 31.8814 29.6232 33.1836 27.7668 33.9525C25.9105 34.7214 23.8678 34.9226 21.8971 34.5306C19.9264 34.1386 18.1162 33.171 16.6954 31.7502C15.2746 30.3294 14.307 28.5192 13.915 26.5485C13.523 24.5778 13.7242 22.5352 14.4932 20.6788C15.2621 18.8224 16.5642 17.2358 18.2349 16.1195ZM13.4836 2.12174H34.2746C37.4703 2.12174 40.535 3.39122 42.7947 5.6509C45.0544 7.91059 46.3239 10.9754 46.3239 14.1711V34.9621C46.3239 38.1578 45.0544 41.2225 42.7947 43.4822C40.535 45.7419 37.4703 47.0114 34.2746 47.0114H13.4836C10.2879 47.0114 7.22309 45.7419 4.9634 43.4822C2.70372 41.2225 1.43424 38.1578 1.43424 34.9621V14.1711C1.43424 10.9754 2.70372 7.91059 4.9634 5.6509C7.22309 3.39122 10.2879 2.12174 13.4836 2.12174ZM44.097 39.0307C44.6313 37.7408 44.9063 36.3583 44.9063 34.9621V14.1711C44.9063 12.7749 44.6313 11.3924 44.097 10.1025C43.5628 8.81256 42.7796 7.64053 41.7924 6.65328C40.8051 5.66603 39.6331 4.8829 38.3432 4.3486C37.0533 3.8143 35.6708 3.53931 34.2746 3.53931H13.4836C10.6639 3.53931 7.95962 4.65943 5.96578 6.65328C3.97193 8.64712 2.85181 11.3514 2.85181 14.1711V34.9621C2.85181 36.3583 3.1268 37.7408 3.6611 39.0307C4.1954 40.3206 4.97853 41.4926 5.96578 42.4799C6.95303 43.4671 8.12506 44.2503 9.41497 44.7845C10.7049 45.3188 12.0874 45.5938 13.4836 45.5938H34.2746C35.6708 45.5938 37.0533 45.3188 38.3432 44.7845C39.6331 44.2503 40.8051 43.4671 41.7924 42.4799C42.7796 41.4926 43.5628 40.3206 44.097 39.0307ZM37.8185 12.281C37.8185 12.6081 37.7215 12.9278 37.5398 13.1998C37.3581 13.4718 37.0998 13.6837 36.7976 13.8089C36.4954 13.9341 36.1628 13.9668 35.842 13.903C35.5212 13.8392 35.2265 13.6817 34.9952 13.4504C34.7639 13.2191 34.6064 12.9244 34.5426 12.6036C34.4788 12.2828 34.5116 11.9503 34.6367 11.6481C34.7619 11.3459 34.9739 11.0876 35.2458 10.9059C35.5178 10.7241 35.8376 10.6271 36.1647 10.6271C36.6033 10.6271 37.0239 10.8014 37.3341 11.1115C37.6443 11.4217 37.8185 11.8424 37.8185 12.281Z" stroke="#D2D2D2" stroke-width="2.36261"/>
</svg>
