<svg width="29" height="28" viewBox="0 0 29 28" fill="none" xmlns="http://www.w3.org/2000/svg">
<path d="M8.86658 0H20.6266C25.1066 0 28.7466 3.64 28.7466 8.12V19.88C28.7466 22.0336 27.8911 24.0989 26.3683 25.6217C24.8455 27.1445 22.7801 28 20.6266 28H8.86658C4.38658 28 0.746582 24.36 0.746582 19.88V8.12C0.746582 5.96644 1.60208 3.90109 3.12488 2.37829C4.64767 0.855498 6.71302 0 8.86658 0ZM8.58658 2.8C7.24989 2.8 5.96795 3.331 5.02276 4.27618C4.07758 5.22137 3.54658 6.50331 3.54658 7.84V20.16C3.54658 22.946 5.80058 25.2 8.58658 25.2H20.9066C22.2433 25.2 23.5252 24.669 24.4704 23.7238C25.4156 22.7786 25.9466 21.4967 25.9466 20.16V7.84C25.9466 5.054 23.6926 2.8 20.9066 2.8H8.58658ZM22.0966 4.9C22.5607 4.9 23.0058 5.08437 23.334 5.41256C23.6622 5.74075 23.8466 6.18587 23.8466 6.65C23.8466 7.11413 23.6622 7.55925 23.334 7.88744C23.0058 8.21563 22.5607 8.4 22.0966 8.4C21.6325 8.4 21.1873 8.21563 20.8591 7.88744C20.531 7.55925 20.3466 7.11413 20.3466 6.65C20.3466 6.18587 20.531 5.74075 20.8591 5.41256C21.1873 5.08437 21.6325 4.9 22.0966 4.9ZM14.7466 7C16.6031 7 18.3836 7.7375 19.6963 9.05025C21.0091 10.363 21.7466 12.1435 21.7466 14C21.7466 15.8565 21.0091 17.637 19.6963 18.9497C18.3836 20.2625 16.6031 21 14.7466 21C12.8901 21 11.1096 20.2625 9.79683 18.9497C8.48408 17.637 7.74658 15.8565 7.74658 14C7.74658 12.1435 8.48408 10.363 9.79683 9.05025C11.1096 7.7375 12.8901 7 14.7466 7ZM14.7466 9.8C13.6327 9.8 12.5644 10.2425 11.7767 11.0302C10.9891 11.8178 10.5466 12.8861 10.5466 14C10.5466 15.1139 10.9891 16.1822 11.7767 16.9698C12.5644 17.7575 13.6327 18.2 14.7466 18.2C15.8605 18.2 16.9288 17.7575 17.7164 16.9698C18.5041 16.1822 18.9466 15.1139 18.9466 14C18.9466 12.8861 18.5041 11.8178 17.7164 11.0302C16.9288 10.2425 15.8605 9.8 14.7466 9.8Z" fill="#444855"/>
</svg>
