<svg width="29" height="28" viewBox="0 0 29 28" fill="none" xmlns="http://www.w3.org/2000/svg">
<path d="M25.6355 0C26.4606 0 27.2519 0.327777 27.8354 0.911223C28.4188 1.49467 28.7466 2.28599 28.7466 3.11111V24.8889C28.7466 25.714 28.4188 26.5053 27.8354 27.0888C27.2519 27.6722 26.4606 28 25.6355 28H3.85769C3.03258 28 2.24125 27.6722 1.65781 27.0888C1.07436 26.5053 0.746582 25.714 0.746582 24.8889V3.11111C0.746582 2.28599 1.07436 1.49467 1.65781 0.911223C2.24125 0.327777 3.03258 0 3.85769 0H25.6355ZM24.8577 24.1111V15.8667C24.8577 14.5217 24.3234 13.2319 23.3724 12.2808C22.4214 11.3298 21.1315 10.7956 19.7866 10.7956C18.4644 10.7956 16.9244 11.6044 16.1777 12.8178V11.0911H11.8377V24.1111H16.1777V16.4422C16.1777 15.2444 17.1421 14.2644 18.3399 14.2644C18.9175 14.2644 19.4714 14.4939 19.8798 14.9023C20.2882 15.3107 20.5177 15.8646 20.5177 16.4422V24.1111H24.8577ZM6.78214 8.64889C7.47524 8.64889 8.13995 8.37356 8.63004 7.88346C9.12014 7.39337 9.39547 6.72865 9.39547 6.03556C9.39547 4.58889 8.2288 3.40667 6.78214 3.40667C6.08491 3.40667 5.41624 3.68364 4.92323 4.17665C4.43022 4.66966 4.15325 5.33833 4.15325 6.03556C4.15325 7.48222 5.33547 8.64889 6.78214 8.64889ZM8.94436 24.1111V11.0911H4.63547V24.1111H8.94436Z" fill="#444855"/>
</svg>
