<svg width="64" height="64" viewBox="0 0 64 64" fill="none" xmlns="http://www.w3.org/2000/svg">
<path fill-rule="evenodd" clip-rule="evenodd" d="M0 32C0 14.3273 14.3273 0 32 0C49.6727 0 64 14.3273 64 32C64 49.6727 49.6727 64 32 64C14.3273 64 0 49.6727 0 32ZM40.1455 24.4364C39.6825 23.8191 38.9934 23.4111 38.2296 23.302C37.4658 23.1929 36.69 23.3916 36.0727 23.8545C35.4555 24.3175 35.0474 25.0066 34.9383 25.7704C34.8292 26.5342 35.028 27.31 35.4909 27.9273L38.5455 32L35.4909 36.0727C35.028 36.69 34.8292 37.4658 34.9383 38.2296C35.0474 38.9934 35.4555 39.6825 36.0727 40.1455C36.69 40.6084 37.4658 40.8071 38.2296 40.698C38.9934 40.5889 39.6825 40.1809 40.1455 39.5636L42.1818 36.8495L44.2182 39.5636C44.6811 40.1809 45.3703 40.5889 46.134 40.698C46.5122 40.7521 46.8974 40.7311 47.2674 40.6363C47.6375 40.5414 47.9853 40.3747 48.2909 40.1455C48.5965 39.9162 48.854 39.6291 49.0487 39.3003C49.2433 38.9716 49.3713 38.6078 49.4253 38.2296C49.4793 37.8514 49.4583 37.4663 49.3635 37.0962C49.2687 36.7261 49.1019 36.3783 48.8727 36.0727L45.8182 32L48.8727 27.9273C49.3356 27.31 49.5344 26.5342 49.4253 25.7704C49.3162 25.0066 48.9081 24.3175 48.2909 23.8545C47.9853 23.6253 47.6375 23.4586 47.2674 23.3637C46.8974 23.2689 46.5122 23.2479 46.134 23.302C45.3703 23.4111 44.6811 23.8191 44.2182 24.4364L42.1818 27.1505L40.1455 24.4364ZM20.3636 26.1818C20.3636 25.4103 20.0571 24.6703 19.5116 24.1248C18.966 23.5792 18.2261 23.2727 17.4545 23.2727C16.683 23.2727 15.9431 23.5792 15.3975 24.1248C14.8519 24.6703 14.5455 25.4103 14.5455 26.1818V32C14.5455 33.4342 14.9527 35.5229 16.256 37.3353C17.6698 39.3018 19.9971 40.7273 23.2727 40.7273C26.5484 40.7273 28.8756 39.296 30.2895 37.3353C31.5927 35.5229 32 33.4371 32 32V26.1818C32 25.4103 31.6935 24.6703 31.1479 24.1248C30.6024 23.5792 29.8624 23.2727 29.0909 23.2727C28.3194 23.2727 27.5794 23.5792 27.0339 24.1248C26.4883 24.6703 26.1818 25.4103 26.1818 26.1818V32C26.1818 32.5033 26.0073 33.3265 25.5651 33.9375C25.2335 34.4 24.6516 34.9091 23.2727 34.9091C21.8938 34.9091 21.312 34.4 20.9804 33.9375C20.5931 33.3642 20.379 32.6916 20.3636 32V26.1818Z" fill="black"/>
</svg>
